<svg xmlns="http://www.w3.org/2000/svg" xmlns:xlink="http://www.w3.org/1999/xlink" width="4608" zoomAndPan="magnify" viewBox="0 0 3456 359.999987" height="480" preserveAspectRatio="xMidYMid meet" version="1.0"><defs><g/></defs><g fill="#000000" fill-opacity="1"><g transform="translate(24.198154, 265.200708)"><g><path d="M 80.265625 -170.234375 L 162.140625 0 L 132.296875 0 L 117.734375 -33.3125 L 39.78125 -33.3125 L 25.21875 0 L -3.703125 0 L 77.71875 -170.234375 Z M 68.6875 -97.84375 L 50.1875 -56.671875 L 107.546875 -56.671875 L 89.28125 -97.609375 L 79.328125 -120.96875 L 78.875 -120.96875 Z M 68.6875 -97.84375 "/></g></g></g><g fill="#000000" fill-opacity="1"><g transform="translate(182.626978, 265.200708)"><g><path d="M 18.5 -170 L 43.25 -170 L 43.25 0 L 18.5 0 Z M 18.5 -170 "/></g></g></g><g fill="#000000" fill-opacity="1"><g transform="translate(244.610807, 265.200708)"><g><path d="M 26.375 -86.28125 L 9.25 -86.28125 L 9.25 -106.171875 L 26.375 -106.171875 L 26.375 -129.0625 C 26.375 -142.9375 29.722656 -153.691406 36.421875 -161.328125 C 43.128906 -168.960938 52.960938 -172.78125 65.921875 -172.78125 C 71.160156 -172.78125 77.097656 -171.316406 83.734375 -168.390625 L 78.875 -144.796875 C 77.789062 -146.023438 76.128906 -147.21875 73.890625 -148.375 C 71.660156 -149.53125 69.234375 -150.109375 66.609375 -150.109375 C 56.273438 -150.109375 51.035156 -143.398438 50.890625 -129.984375 L 50.890625 -106.171875 L 75.859375 -106.171875 L 75.859375 -86.28125 L 50.890625 -86.28125 L 50.890625 0 L 26.375 0 Z M 26.375 -86.28125 "/></g></g></g><g fill="#000000" fill-opacity="1"><g transform="translate(328.335251, 265.200708)"><g><path d="M 65.921875 2.3125 C 54.972656 2.3125 45.257812 -0.148438 36.78125 -5.078125 C 28.300781 -10.015625 21.742188 -16.722656 17.109375 -25.203125 C 12.484375 -33.691406 10.171875 -43.097656 10.171875 -53.421875 C 10.171875 -63.597656 12.445312 -72.925781 17 -81.40625 C 21.550781 -89.894531 28.066406 -96.601562 36.546875 -101.53125 C 45.023438 -106.46875 54.816406 -108.9375 65.921875 -108.9375 C 77.023438 -108.9375 86.773438 -106.46875 95.171875 -101.53125 C 103.578125 -96.601562 110.054688 -89.894531 114.609375 -81.40625 C 119.160156 -72.925781 121.4375 -63.597656 121.4375 -53.421875 C 121.4375 -43.097656 119.117188 -33.691406 114.484375 -25.203125 C 109.859375 -16.722656 103.34375 -10.015625 94.9375 -5.078125 C 86.539062 -0.148438 76.867188 2.3125 65.921875 2.3125 Z M 66.609375 -18.046875 C 75.554688 -18.046875 82.613281 -21.359375 87.78125 -27.984375 C 92.945312 -34.617188 95.53125 -42.945312 95.53125 -52.96875 C 95.53125 -62.988281 92.753906 -71.429688 87.203125 -78.296875 C 81.648438 -85.160156 74.320312 -88.59375 65.21875 -88.59375 C 56.4375 -88.59375 49.382812 -85.195312 44.0625 -78.40625 C 38.738281 -71.625 36.078125 -63.144531 36.078125 -52.96875 C 36.078125 -43.09375 38.929688 -34.800781 44.640625 -28.09375 C 50.347656 -21.394531 57.671875 -18.046875 66.609375 -18.046875 Z M 66.609375 -18.046875 "/></g></g></g><g fill="#000000" fill-opacity="1"><g transform="translate(459.935195, 265.200708)"><g><path d="M 16.421875 -106.171875 L 40.9375 -106.171875 L 41.171875 -86.734375 C 44.097656 -93.210938 48.722656 -98.53125 55.046875 -102.6875 C 61.367188 -106.851562 68.769531 -108.9375 77.25 -108.9375 C 88.195312 -108.9375 96.597656 -106.660156 102.453125 -102.109375 C 108.316406 -97.566406 112.25 -91.207031 114.25 -83.03125 C 116.257812 -74.863281 117.265625 -64.222656 117.265625 -51.109375 L 117.265625 0 L 92.28125 0 L 92.28125 -50.421875 C 92.28125 -63.835938 90.96875 -73.515625 88.34375 -79.453125 C 85.726562 -85.390625 80.335938 -88.359375 72.171875 -88.359375 C 67.535156 -88.359375 62.828125 -86.929688 58.046875 -84.078125 C 53.273438 -81.222656 49.304688 -77.097656 46.140625 -71.703125 C 42.984375 -66.304688 41.40625 -59.984375 41.40625 -52.734375 L 41.40625 0 L 16.421875 0 Z M 16.421875 -106.171875 "/></g></g></g><g fill="#000000" fill-opacity="1"><g transform="translate(592.922843, 265.200708)"><g><path d="M 52.96875 2.3125 C 45.5625 2.3125 37.890625 1.347656 29.953125 -0.578125 C 22.015625 -2.503906 16.347656 -4.78125 12.953125 -7.40625 L 21.28125 -27.0625 C 30.53125 -20.582031 41.09375 -17.34375 52.96875 -17.34375 C 64.84375 -17.34375 70.78125 -20.8125 70.78125 -27.75 C 70.78125 -30.832031 69.546875 -33.222656 67.078125 -34.921875 C 64.609375 -36.617188 60.210938 -38.625 53.890625 -40.9375 L 45.109375 -44.171875 C 35.847656 -47.878906 28.519531 -52.3125 23.125 -57.46875 C 17.726562 -62.632812 15.03125 -69.460938 15.03125 -77.953125 C 15.03125 -87.660156 18.847656 -95.25 26.484375 -100.71875 C 34.117188 -106.195312 44.332031 -108.9375 57.125 -108.9375 C 63.445312 -108.9375 69.65625 -108.242188 75.75 -106.859375 C 81.84375 -105.472656 86.507812 -103.703125 89.75 -101.546875 L 80.71875 -81.640625 C 78.71875 -83.648438 75.519531 -85.382812 71.125 -86.84375 C 66.726562 -88.3125 61.832031 -89.046875 56.4375 -89.046875 C 45.488281 -89.046875 40.015625 -85.734375 40.015625 -79.109375 C 40.015625 -75.398438 41.476562 -72.582031 44.40625 -70.65625 C 47.332031 -68.726562 52.113281 -66.609375 58.75 -64.296875 C 59.363281 -64.140625 61.753906 -63.289062 65.921875 -61.75 C 75.785156 -57.894531 83.109375 -53.5 87.890625 -48.5625 C 92.671875 -43.632812 95.0625 -37.316406 95.0625 -29.609375 C 95.0625 -19.117188 91.085938 -11.175781 83.140625 -5.78125 C 75.203125 -0.382812 65.144531 2.3125 52.96875 2.3125 Z M 52.96875 2.3125 "/></g></g></g><g fill="#000000" fill-opacity="1"><g transform="translate(697.462744, 265.200708)"><g><path d="M 65.921875 2.3125 C 54.972656 2.3125 45.257812 -0.148438 36.78125 -5.078125 C 28.300781 -10.015625 21.742188 -16.722656 17.109375 -25.203125 C 12.484375 -33.691406 10.171875 -43.097656 10.171875 -53.421875 C 10.171875 -63.597656 12.445312 -72.925781 17 -81.40625 C 21.550781 -89.894531 28.066406 -96.601562 36.546875 -101.53125 C 45.023438 -106.46875 54.816406 -108.9375 65.921875 -108.9375 C 77.023438 -108.9375 86.773438 -106.46875 95.171875 -101.53125 C 103.578125 -96.601562 110.054688 -89.894531 114.609375 -81.40625 C 119.160156 -72.925781 121.4375 -63.597656 121.4375 -53.421875 C 121.4375 -43.097656 119.117188 -33.691406 114.484375 -25.203125 C 109.859375 -16.722656 103.34375 -10.015625 94.9375 -5.078125 C 86.539062 -0.148438 76.867188 2.3125 65.921875 2.3125 Z M 66.609375 -18.046875 C 75.554688 -18.046875 82.613281 -21.359375 87.78125 -27.984375 C 92.945312 -34.617188 95.53125 -42.945312 95.53125 -52.96875 C 95.53125 -62.988281 92.753906 -71.429688 87.203125 -78.296875 C 81.648438 -85.160156 74.320312 -88.59375 65.21875 -88.59375 C 56.4375 -88.59375 49.382812 -85.195312 44.0625 -78.40625 C 38.738281 -71.625 36.078125 -63.144531 36.078125 -52.96875 C 36.078125 -43.09375 38.929688 -34.800781 44.640625 -28.09375 C 50.347656 -21.394531 57.671875 -18.046875 66.609375 -18.046875 Z M 66.609375 -18.046875 "/></g></g></g><g fill="#000000" fill-opacity="1"><g transform="translate(829.062689, 265.200708)"><g/></g></g><g fill="#000000" fill-opacity="1"><g transform="translate(885.727017, 265.200708)"><g><path d="M 18.046875 -170 L 44.171875 -170 L 44.171875 -23.125 L 92.984375 -23.125 L 92.984375 0 L 18.046875 0 Z M 18.046875 -170 "/></g></g></g><g fill="#000000" fill-opacity="1"><g transform="translate(985.641273, 265.200708)"><g><path d="M 63.375 2.3125 C 53.8125 2.3125 44.984375 0.0390625 36.890625 -4.5 C 28.796875 -9.050781 22.316406 -15.53125 17.453125 -23.9375 C 12.597656 -32.34375 10.171875 -42.171875 10.171875 -53.421875 C 10.171875 -64.523438 12.289062 -74.238281 16.53125 -82.5625 C 20.769531 -90.894531 26.820312 -97.375 34.6875 -102 C 42.550781 -106.625 51.804688 -108.9375 62.453125 -108.9375 C 68.617188 -108.9375 74.398438 -107.859375 79.796875 -105.703125 C 85.191406 -103.546875 89.738281 -100.882812 93.4375 -97.71875 C 97.144531 -94.5625 99.613281 -91.441406 100.84375 -88.359375 L 101.3125 -106.171875 L 125.125 -106.171875 L 125.125 0 L 101.546875 0 L 101.078125 -18.734375 C 98.453125 -13.179688 93.671875 -8.285156 86.734375 -4.046875 C 79.796875 0.191406 72.007812 2.3125 63.375 2.3125 Z M 67.53125 -18.5 C 76.320312 -18.5 83.722656 -21.546875 89.734375 -27.640625 C 95.753906 -33.734375 98.765625 -41.710938 98.765625 -51.578125 L 98.765625 -53.203125 C 98.765625 -59.828125 97.375 -65.757812 94.59375 -71 C 91.820312 -76.25 88.046875 -80.335938 83.265625 -83.265625 C 78.484375 -86.191406 73.238281 -87.65625 67.53125 -87.65625 C 57.664062 -87.65625 50.035156 -84.457031 44.640625 -78.0625 C 39.242188 -71.664062 36.546875 -63.378906 36.546875 -53.203125 C 36.546875 -42.867188 39.203125 -34.5 44.515625 -28.09375 C 49.835938 -21.695312 57.507812 -18.5 67.53125 -18.5 Z M 67.53125 -18.5 "/></g></g></g><g fill="#000000" fill-opacity="1"><g transform="translate(1127.880291, 265.200708)"><g><path d="M 68 55.515625 C 60.132812 55.515625 52.382812 54.429688 44.75 52.265625 C 37.125 50.109375 31.691406 48.109375 28.453125 46.265625 L 34 23.125 C 44.175781 29.757812 55.28125 33.078125 67.3125 33.078125 C 76.5625 33.078125 84.347656 30.835938 90.671875 26.359375 C 96.992188 21.890625 100.226562 13.179688 100.375 0.234375 L 100.375 -18.734375 C 97.144531 -12.722656 91.90625 -7.710938 84.65625 -3.703125 C 77.40625 0.304688 69.382812 2.3125 60.59375 2.3125 C 51.34375 2.3125 42.863281 0.0390625 35.15625 -4.5 C 27.445312 -9.050781 21.351562 -15.566406 16.875 -24.046875 C 12.40625 -32.535156 10.171875 -42.40625 10.171875 -53.65625 C 10.171875 -64.457031 12.289062 -74.054688 16.53125 -82.453125 C 20.769531 -90.859375 26.820312 -97.375 34.6875 -102 C 42.550781 -106.625 51.726562 -108.9375 62.21875 -108.9375 C 68.382812 -108.9375 74.164062 -107.859375 79.5625 -105.703125 C 84.957031 -103.546875 89.546875 -100.882812 93.328125 -97.71875 C 97.109375 -94.5625 99.613281 -91.441406 100.84375 -88.359375 L 101.3125 -106.171875 L 124.90625 -106.171875 L 124.90625 -0.6875 C 124.90625 17.351562 120.273438 31.226562 111.015625 40.9375 C 101.765625 50.65625 87.425781 55.515625 68 55.515625 Z M 67.53125 -18.734375 C 76.320312 -18.734375 83.722656 -21.773438 89.734375 -27.859375 C 95.753906 -33.953125 98.765625 -41.9375 98.765625 -51.8125 L 98.765625 -53.421875 C 98.765625 -60.054688 97.375 -65.992188 94.59375 -71.234375 C 91.820312 -76.484375 88.046875 -80.570312 83.265625 -83.5 C 78.484375 -86.425781 73.238281 -87.890625 67.53125 -87.890625 C 57.664062 -87.890625 50.035156 -84.6875 44.640625 -78.28125 C 39.242188 -71.882812 36.546875 -63.597656 36.546875 -53.421875 C 36.546875 -43.097656 39.203125 -34.734375 44.515625 -28.328125 C 49.835938 -21.929688 57.507812 -18.734375 67.53125 -18.734375 Z M 67.53125 -18.734375 "/></g></g></g><g fill="#000000" fill-opacity="1"><g transform="translate(1268.268991, 265.200708)"><g><path d="M 63.375 2.3125 C 53.8125 2.3125 44.984375 0.0390625 36.890625 -4.5 C 28.796875 -9.050781 22.316406 -15.53125 17.453125 -23.9375 C 12.597656 -32.34375 10.171875 -42.171875 10.171875 -53.421875 C 10.171875 -64.523438 12.289062 -74.238281 16.53125 -82.5625 C 20.769531 -90.894531 26.820312 -97.375 34.6875 -102 C 42.550781 -106.625 51.804688 -108.9375 62.453125 -108.9375 C 68.617188 -108.9375 74.398438 -107.859375 79.796875 -105.703125 C 85.191406 -103.546875 89.738281 -100.882812 93.4375 -97.71875 C 97.144531 -94.5625 99.613281 -91.441406 100.84375 -88.359375 L 101.3125 -106.171875 L 125.125 -106.171875 L 125.125 0 L 101.546875 0 L 101.078125 -18.734375 C 98.453125 -13.179688 93.671875 -8.285156 86.734375 -4.046875 C 79.796875 0.191406 72.007812 2.3125 63.375 2.3125 Z M 67.53125 -18.5 C 76.320312 -18.5 83.722656 -21.546875 89.734375 -27.640625 C 95.753906 -33.734375 98.765625 -41.710938 98.765625 -51.578125 L 98.765625 -53.203125 C 98.765625 -59.828125 97.375 -65.757812 94.59375 -71 C 91.820312 -76.25 88.046875 -80.335938 83.265625 -83.265625 C 78.484375 -86.191406 73.238281 -87.65625 67.53125 -87.65625 C 57.664062 -87.65625 50.035156 -84.457031 44.640625 -78.0625 C 39.242188 -71.664062 36.546875 -63.378906 36.546875 -53.203125 C 36.546875 -42.867188 39.203125 -34.5 44.515625 -28.09375 C 49.835938 -21.695312 57.507812 -18.5 67.53125 -18.5 Z M 67.53125 -18.5 "/></g></g></g><g fill="#000000" fill-opacity="1"><g transform="translate(1410.507934, 265.200708)"><g><path d="M 15.734375 -106.171875 L 40.703125 -106.171875 L 40.703125 -85.34375 C 43.171875 -92.4375 47.179688 -98.140625 52.734375 -102.453125 C 58.285156 -106.773438 64.609375 -108.9375 71.703125 -108.9375 C 76.640625 -108.9375 80.03125 -108.472656 81.875 -107.546875 L 78.40625 -82.34375 C 77.019531 -83.269531 74.015625 -83.734375 69.390625 -83.734375 C 62.140625 -83.734375 55.546875 -81.421875 49.609375 -76.796875 C 43.671875 -72.171875 40.703125 -64.769531 40.703125 -54.59375 L 40.703125 0 L 15.734375 0 Z M 15.734375 -106.171875 "/></g></g></g><g fill="#000000" fill-opacity="1"><g transform="translate(1493.538604, 265.200708)"><g><path d="M 66.609375 2.3125 C 53.960938 2.3125 43.398438 -0.191406 34.921875 -5.203125 C 26.441406 -10.210938 20.195312 -16.921875 16.1875 -25.328125 C 12.175781 -33.734375 10.171875 -42.945312 10.171875 -52.96875 C 10.171875 -64.226562 12.519531 -74.097656 17.21875 -82.578125 C 21.925781 -91.054688 28.441406 -97.566406 36.765625 -102.109375 C 45.097656 -106.660156 54.507812 -108.9375 65 -108.9375 C 81.34375 -108.9375 93.484375 -104.425781 101.421875 -95.40625 C 109.359375 -86.382812 113.328125 -73.703125 113.328125 -57.359375 C 113.328125 -53.191406 113.097656 -48.875 112.640625 -44.40625 L 36.3125 -44.40625 C 38.007812 -35 41.363281 -28.210938 46.375 -24.046875 C 51.382812 -19.890625 58.363281 -17.8125 67.3125 -17.8125 C 74.707031 -17.8125 80.796875 -18.425781 85.578125 -19.65625 C 90.359375 -20.894531 94.753906 -22.59375 98.765625 -24.75 L 106.390625 -6.9375 C 102.535156 -4.46875 97.289062 -2.304688 90.65625 -0.453125 C 84.03125 1.390625 76.015625 2.3125 66.609375 2.3125 Z M 89.046875 -61.75 C 89.203125 -71.3125 87.117188 -78.054688 82.796875 -81.984375 C 78.484375 -85.921875 72.316406 -87.890625 64.296875 -87.890625 C 48.109375 -87.890625 38.78125 -79.175781 36.3125 -61.75 Z M 89.046875 -61.75 "/></g></g></g><g fill="#000000" fill-opacity="1"><g transform="translate(1616.581026, 265.200708)"><g><path d="M 52.96875 2.3125 C 45.5625 2.3125 37.890625 1.347656 29.953125 -0.578125 C 22.015625 -2.503906 16.347656 -4.78125 12.953125 -7.40625 L 21.28125 -27.0625 C 30.53125 -20.582031 41.09375 -17.34375 52.96875 -17.34375 C 64.84375 -17.34375 70.78125 -20.8125 70.78125 -27.75 C 70.78125 -30.832031 69.546875 -33.222656 67.078125 -34.921875 C 64.609375 -36.617188 60.210938 -38.625 53.890625 -40.9375 L 45.109375 -44.171875 C 35.847656 -47.878906 28.519531 -52.3125 23.125 -57.46875 C 17.726562 -62.632812 15.03125 -69.460938 15.03125 -77.953125 C 15.03125 -87.660156 18.847656 -95.25 26.484375 -100.71875 C 34.117188 -106.195312 44.332031 -108.9375 57.125 -108.9375 C 63.445312 -108.9375 69.65625 -108.242188 75.75 -106.859375 C 81.84375 -105.472656 86.507812 -103.703125 89.75 -101.546875 L 80.71875 -81.640625 C 78.71875 -83.648438 75.519531 -85.382812 71.125 -86.84375 C 66.726562 -88.3125 61.832031 -89.046875 56.4375 -89.046875 C 45.488281 -89.046875 40.015625 -85.734375 40.015625 -79.109375 C 40.015625 -75.398438 41.476562 -72.582031 44.40625 -70.65625 C 47.332031 -68.726562 52.113281 -66.609375 58.75 -64.296875 C 59.363281 -64.140625 61.753906 -63.289062 65.921875 -61.75 C 75.785156 -57.894531 83.109375 -53.5 87.890625 -48.5625 C 92.671875 -43.632812 95.0625 -37.316406 95.0625 -29.609375 C 95.0625 -19.117188 91.085938 -11.175781 83.140625 -5.78125 C 75.203125 -0.382812 65.144531 2.3125 52.96875 2.3125 Z M 52.96875 2.3125 "/></g></g></g><path stroke-linecap="butt" transform="matrix(0.000000000000000046, -0.750159, 0.75, 0.000000000000000046, 1794.439387, 316.040483)" fill="none" stroke-linejoin="miter" d="M 0.00189369 11.997485 L 367.93422 11.997485 " stroke="#000000" stroke-width="24" stroke-opacity="1" stroke-miterlimit="4"/><g fill="#000000" fill-opacity="1"><g transform="translate(1867.365157, 148.229231)"><g><path d="M 8.546875 -80.546875 L 29.03125 -80.546875 C 40.570312 -80.546875 48.242188 -78.609375 52.046875 -74.734375 C 55.847656 -70.859375 57.75 -66.179688 57.75 -60.703125 C 57.75 -57.054688 56.941406 -53.601562 55.328125 -50.34375 C 53.722656 -47.09375 51.171875 -44.664062 47.671875 -43.0625 C 52.859375 -41.75 56.671875 -39.445312 59.109375 -36.15625 C 61.554688 -32.875 62.78125 -29.003906 62.78125 -24.546875 C 62.78125 -19.867188 62.050781 -15.773438 60.59375 -12.265625 C 59.132812 -8.765625 56.101562 -5.84375 51.5 -3.5 C 46.894531 -1.164062 40.25 0 31.5625 0 L 8.546875 0 Z M 31.015625 -46.34375 C 36.203125 -46.34375 39.890625 -47.601562 42.078125 -50.125 C 44.265625 -52.644531 45.359375 -55.84375 45.359375 -59.71875 C 45.359375 -66.65625 40.394531 -70.125 30.46875 -70.125 L 20.59375 -70.125 L 20.59375 -46.34375 Z M 33.203125 -10.296875 C 39.847656 -10.296875 44.320312 -11.628906 46.625 -14.296875 C 48.925781 -16.960938 50.078125 -20.34375 50.078125 -24.4375 C 50.078125 -28.3125 48.757812 -31.304688 46.125 -33.421875 C 43.5 -35.535156 39.519531 -36.59375 34.1875 -36.59375 L 20.59375 -36.59375 L 20.59375 -10.296875 Z M 33.203125 -10.296875 "/></g></g></g><g fill="#000000" fill-opacity="1"><g transform="translate(1935.962163, 148.229231)"><g><path d="M 15.890625 1.09375 C 13.691406 1.09375 11.828125 0.347656 10.296875 -1.140625 C 8.765625 -2.640625 8 -4.488281 8 -6.6875 C 8 -8.945312 8.742188 -10.828125 10.234375 -12.328125 C 11.734375 -13.828125 13.617188 -14.578125 15.890625 -14.578125 C 18.148438 -14.578125 20.03125 -13.828125 21.53125 -12.328125 C 23.03125 -10.828125 23.78125 -8.945312 23.78125 -6.6875 C 23.78125 -4.488281 23.03125 -2.640625 21.53125 -1.140625 C 20.03125 0.347656 18.148438 1.09375 15.890625 1.09375 Z M 15.890625 1.09375 "/></g></g></g><g fill="#000000" fill-opacity="1"><g transform="translate(1967.849903, 148.229231)"><g><path d="M 25.09375 1.09375 C 21.582031 1.09375 17.945312 0.640625 14.1875 -0.265625 C 10.425781 -1.179688 7.742188 -2.257812 6.140625 -3.5 L 10.078125 -12.828125 C 14.460938 -9.753906 19.46875 -8.21875 25.09375 -8.21875 C 30.71875 -8.21875 33.53125 -9.863281 33.53125 -13.15625 C 33.53125 -14.613281 32.945312 -15.742188 31.78125 -16.546875 C 30.613281 -17.347656 28.53125 -18.296875 25.53125 -19.390625 L 21.375 -20.921875 C 16.988281 -22.679688 13.515625 -24.785156 10.953125 -27.234375 C 8.398438 -29.679688 7.125 -32.910156 7.125 -36.921875 C 7.125 -41.523438 8.929688 -45.125 12.546875 -47.71875 C 16.160156 -50.3125 21 -51.609375 27.0625 -51.609375 C 30.0625 -51.609375 33.003906 -51.28125 35.890625 -50.625 C 38.773438 -49.96875 40.984375 -49.128906 42.515625 -48.109375 L 38.25 -38.6875 C 37.289062 -39.632812 35.769531 -40.453125 33.6875 -41.140625 C 31.613281 -41.835938 29.296875 -42.1875 26.734375 -42.1875 C 21.546875 -42.1875 18.953125 -40.613281 18.953125 -37.46875 C 18.953125 -35.71875 19.644531 -34.382812 21.03125 -33.46875 C 22.425781 -32.5625 24.691406 -31.5625 27.828125 -30.46875 C 28.117188 -30.394531 29.253906 -29.988281 31.234375 -29.25 C 35.910156 -27.425781 39.378906 -25.34375 41.640625 -23 C 43.898438 -20.664062 45.03125 -17.675781 45.03125 -14.03125 C 45.03125 -9.0625 43.148438 -5.296875 39.390625 -2.734375 C 35.628906 -0.179688 30.863281 1.09375 25.09375 1.09375 Z M 25.09375 1.09375 "/></g></g></g><g fill="#000000" fill-opacity="1"><g transform="translate(2017.379978, 148.229231)"><g/></g></g><g fill="#000000" fill-opacity="1"><g transform="translate(2044.22708, 148.229231)"><g><path d="M 38.03125 -80.65625 L 76.8125 0 L 62.671875 0 L 55.78125 -15.78125 L 18.84375 -15.78125 L 11.9375 0 L -1.75 0 L 36.8125 -80.65625 Z M 32.546875 -46.34375 L 23.78125 -26.84375 L 50.953125 -26.84375 L 42.296875 -46.234375 L 37.578125 -57.3125 L 37.359375 -57.3125 Z M 32.546875 -46.34375 "/></g></g></g><g fill="#000000" fill-opacity="1"><g transform="translate(2119.28932, 148.229231)"><g><path d="M 31.5625 1.09375 C 25.570312 1.09375 20.566406 -0.09375 16.546875 -2.46875 C 12.523438 -4.84375 9.566406 -8.019531 7.671875 -12 C 5.773438 -15.976562 4.828125 -20.34375 4.828125 -25.09375 C 4.828125 -30.425781 5.9375 -35.097656 8.15625 -39.109375 C 10.382812 -43.128906 13.472656 -46.21875 17.421875 -48.375 C 21.367188 -50.53125 25.828125 -51.609375 30.796875 -51.609375 C 38.535156 -51.609375 44.285156 -49.472656 48.046875 -45.203125 C 51.804688 -40.929688 53.6875 -34.921875 53.6875 -27.171875 C 53.6875 -25.203125 53.578125 -23.15625 53.359375 -21.03125 L 17.203125 -21.03125 C 18.003906 -16.582031 19.59375 -13.367188 21.96875 -11.390625 C 24.34375 -9.421875 27.648438 -8.4375 31.890625 -8.4375 C 35.390625 -8.4375 38.269531 -8.726562 40.53125 -9.3125 C 42.800781 -9.894531 44.890625 -10.695312 46.796875 -11.71875 L 50.40625 -3.28125 C 48.582031 -2.113281 46.097656 -1.09375 42.953125 -0.21875 C 39.816406 0.65625 36.019531 1.09375 31.5625 1.09375 Z M 42.1875 -29.25 C 42.257812 -33.78125 41.269531 -36.976562 39.21875 -38.84375 C 37.175781 -40.707031 34.257812 -41.640625 30.46875 -41.640625 C 22.789062 -41.640625 18.367188 -37.507812 17.203125 -29.25 Z M 42.1875 -29.25 "/></g></g></g><g fill="#000000" fill-opacity="1"><g transform="translate(2177.585802, 148.229231)"><g><path d="M 7.453125 -50.296875 L 19.28125 -50.296875 L 19.28125 -40.4375 C 20.445312 -43.789062 22.34375 -46.488281 24.96875 -48.53125 C 27.601562 -50.582031 30.601562 -51.609375 33.96875 -51.609375 C 36.300781 -51.609375 37.910156 -51.390625 38.796875 -50.953125 L 37.140625 -39.015625 C 36.484375 -39.453125 35.0625 -39.671875 32.875 -39.671875 C 29.4375 -39.671875 26.3125 -38.570312 23.5 -36.375 C 20.6875 -34.1875 19.28125 -30.679688 19.28125 -25.859375 L 19.28125 0 L 7.453125 0 Z M 7.453125 -50.296875 "/></g></g></g><g fill="#000000" fill-opacity="1"><g transform="translate(2216.925013, 148.229231)"><g><path d="M 31.234375 1.09375 C 26.046875 1.09375 21.441406 -0.0703125 17.421875 -2.40625 C 13.398438 -4.75 10.296875 -7.925781 8.109375 -11.9375 C 5.921875 -15.957031 4.828125 -20.414062 4.828125 -25.3125 C 4.828125 -30.132812 5.898438 -34.550781 8.046875 -38.5625 C 10.203125 -42.582031 13.289062 -45.757812 17.3125 -48.09375 C 21.332031 -50.4375 25.972656 -51.609375 31.234375 -51.609375 C 36.492188 -51.609375 41.113281 -50.4375 45.09375 -48.09375 C 49.070312 -45.757812 52.140625 -42.582031 54.296875 -38.5625 C 56.453125 -34.550781 57.53125 -30.132812 57.53125 -25.3125 C 57.53125 -20.414062 56.429688 -15.957031 54.234375 -11.9375 C 52.046875 -7.925781 48.960938 -4.75 44.984375 -2.40625 C 41.003906 -0.0703125 36.421875 1.09375 31.234375 1.09375 Z M 31.5625 -8.546875 C 35.789062 -8.546875 39.128906 -10.113281 41.578125 -13.25 C 44.023438 -16.394531 45.25 -20.34375 45.25 -25.09375 C 45.25 -29.84375 43.929688 -33.84375 41.296875 -37.09375 C 38.671875 -40.34375 35.207031 -41.96875 30.90625 -41.96875 C 26.738281 -41.96875 23.394531 -40.359375 20.875 -37.140625 C 18.351562 -33.929688 17.09375 -29.914062 17.09375 -25.09375 C 17.09375 -20.414062 18.441406 -16.488281 21.140625 -13.3125 C 23.847656 -10.132812 27.320312 -8.546875 31.5625 -8.546875 Z M 31.5625 -8.546875 "/></g></g></g><g fill="#000000" fill-opacity="1"><g transform="translate(2279.275965, 148.229231)"><g><path d="M 25.09375 1.09375 C 21.582031 1.09375 17.945312 0.640625 14.1875 -0.265625 C 10.425781 -1.179688 7.742188 -2.257812 6.140625 -3.5 L 10.078125 -12.828125 C 14.460938 -9.753906 19.46875 -8.21875 25.09375 -8.21875 C 30.71875 -8.21875 33.53125 -9.863281 33.53125 -13.15625 C 33.53125 -14.613281 32.945312 -15.742188 31.78125 -16.546875 C 30.613281 -17.347656 28.53125 -18.296875 25.53125 -19.390625 L 21.375 -20.921875 C 16.988281 -22.679688 13.515625 -24.785156 10.953125 -27.234375 C 8.398438 -29.679688 7.125 -32.910156 7.125 -36.921875 C 7.125 -41.523438 8.929688 -45.125 12.546875 -47.71875 C 16.160156 -50.3125 21 -51.609375 27.0625 -51.609375 C 30.0625 -51.609375 33.003906 -51.28125 35.890625 -50.625 C 38.773438 -49.96875 40.984375 -49.128906 42.515625 -48.109375 L 38.25 -38.6875 C 37.289062 -39.632812 35.769531 -40.453125 33.6875 -41.140625 C 31.613281 -41.835938 29.296875 -42.1875 26.734375 -42.1875 C 21.546875 -42.1875 18.953125 -40.613281 18.953125 -37.46875 C 18.953125 -35.71875 19.644531 -34.382812 21.03125 -33.46875 C 22.425781 -32.5625 24.691406 -31.5625 27.828125 -30.46875 C 28.117188 -30.394531 29.253906 -29.988281 31.234375 -29.25 C 35.910156 -27.425781 39.378906 -25.34375 41.640625 -23 C 43.898438 -20.664062 45.03125 -17.675781 45.03125 -14.03125 C 45.03125 -9.0625 43.148438 -5.296875 39.390625 -2.734375 C 35.628906 -0.179688 30.863281 1.09375 25.09375 1.09375 Z M 25.09375 1.09375 "/></g></g></g><g fill="#000000" fill-opacity="1"><g transform="translate(2328.80604, 148.229231)"><g><path d="M 8 -50.296875 L 19.390625 -50.296875 L 19.390625 -40.984375 C 23.410156 -48.066406 29.695312 -51.609375 38.25 -51.609375 C 45.332031 -51.609375 51.0625 -49.363281 55.4375 -44.875 C 59.820312 -40.382812 62.015625 -33.898438 62.015625 -25.421875 C 62.015625 -20.160156 60.9375 -15.519531 58.78125 -11.5 C 56.632812 -7.488281 53.710938 -4.382812 50.015625 -2.1875 C 46.328125 0 42.21875 1.09375 37.6875 1.09375 C 33.457031 1.09375 29.789062 0.347656 26.6875 -1.140625 C 23.582031 -2.640625 21.148438 -4.78125 19.390625 -7.5625 L 19.5 26.625 L 8 26.625 Z M 34.953125 -8.875 C 39.703125 -8.875 43.351562 -10.390625 45.90625 -13.421875 C 48.46875 -16.453125 49.75 -20.34375 49.75 -25.09375 C 49.75 -30.0625 48.488281 -34.023438 45.96875 -36.984375 C 43.445312 -39.941406 39.773438 -41.421875 34.953125 -41.421875 C 32.328125 -41.421875 29.863281 -40.78125 27.5625 -39.5 C 25.257812 -38.21875 23.429688 -36.390625 22.078125 -34.015625 C 20.722656 -31.648438 20.046875 -28.894531 20.046875 -25.75 L 20.046875 -24.984375 C 20.046875 -21.835938 20.722656 -19.039062 22.078125 -16.59375 C 23.429688 -14.15625 25.238281 -12.257812 27.5 -10.90625 C 29.769531 -9.550781 32.253906 -8.875 34.953125 -8.875 Z M 34.953125 -8.875 "/></g></g></g><g fill="#000000" fill-opacity="1"><g transform="translate(2395.649751, 148.229231)"><g><path d="M 30.03125 1.09375 C 25.5 1.09375 21.3125 0.015625 17.46875 -2.140625 C 13.632812 -4.296875 10.566406 -7.363281 8.265625 -11.34375 C 5.972656 -15.320312 4.828125 -19.976562 4.828125 -25.3125 C 4.828125 -30.570312 5.828125 -35.171875 7.828125 -39.109375 C 9.835938 -43.054688 12.707031 -46.125 16.4375 -48.3125 C 20.164062 -50.507812 24.550781 -51.609375 29.59375 -51.609375 C 32.507812 -51.609375 35.242188 -51.097656 37.796875 -50.078125 C 40.359375 -49.054688 42.515625 -47.796875 44.265625 -46.296875 C 46.023438 -44.796875 47.195312 -43.316406 47.78125 -41.859375 L 48 -50.296875 L 59.28125 -50.296875 L 59.28125 0 L 48.109375 0 L 47.890625 -8.875 C 46.640625 -6.25 44.367188 -3.929688 41.078125 -1.921875 C 37.796875 0.0859375 34.113281 1.09375 30.03125 1.09375 Z M 32 -8.765625 C 36.164062 -8.765625 39.671875 -10.207031 42.515625 -13.09375 C 45.367188 -15.976562 46.796875 -19.757812 46.796875 -24.4375 L 46.796875 -25.203125 C 46.796875 -28.347656 46.132812 -31.160156 44.8125 -33.640625 C 43.5 -36.117188 41.707031 -38.050781 39.4375 -39.4375 C 37.175781 -40.832031 34.695312 -41.53125 32 -41.53125 C 27.320312 -41.53125 23.703125 -40.015625 21.140625 -36.984375 C 18.585938 -33.953125 17.3125 -30.023438 17.3125 -25.203125 C 17.3125 -20.304688 18.570312 -16.34375 21.09375 -13.3125 C 23.613281 -10.28125 27.25 -8.765625 32 -8.765625 Z M 32 -8.765625 "/></g></g></g><g fill="#000000" fill-opacity="1"><g transform="translate(2463.04141, 148.229231)"><g><path d="M 31.234375 1.09375 C 26.265625 1.09375 21.785156 0.015625 17.796875 -2.140625 C 13.816406 -4.296875 10.660156 -7.398438 8.328125 -11.453125 C 5.992188 -15.503906 4.828125 -20.269531 4.828125 -25.75 C 4.828125 -30.9375 5.898438 -35.484375 8.046875 -39.390625 C 10.203125 -43.296875 13.234375 -46.304688 17.140625 -48.421875 C 21.054688 -50.546875 25.570312 -51.609375 30.6875 -51.609375 C 34.550781 -51.609375 37.890625 -51.113281 40.703125 -50.125 C 43.515625 -49.144531 45.726562 -47.925781 47.34375 -46.46875 L 42.078125 -36.921875 C 39.003906 -39.992188 35.535156 -41.53125 31.671875 -41.53125 C 26.992188 -41.53125 23.429688 -40.101562 20.984375 -37.25 C 18.535156 -34.40625 17.3125 -30.609375 17.3125 -25.859375 C 17.3125 -20.453125 18.570312 -16.25 21.09375 -13.25 C 23.613281 -10.257812 27.140625 -8.765625 31.671875 -8.765625 C 33.929688 -8.765625 36.140625 -9.09375 38.296875 -9.75 C 40.453125 -10.40625 42.113281 -11.171875 43.28125 -12.046875 L 47.5625 -3.71875 C 45.945312 -2.476562 43.695312 -1.363281 40.8125 -0.375 C 37.925781 0.601562 34.734375 1.09375 31.234375 1.09375 Z M 31.234375 1.09375 "/></g></g></g><g fill="#000000" fill-opacity="1"><g transform="translate(2514.105601, 148.229231)"><g><path d="M 31.5625 1.09375 C 25.570312 1.09375 20.566406 -0.09375 16.546875 -2.46875 C 12.523438 -4.84375 9.566406 -8.019531 7.671875 -12 C 5.773438 -15.976562 4.828125 -20.34375 4.828125 -25.09375 C 4.828125 -30.425781 5.9375 -35.097656 8.15625 -39.109375 C 10.382812 -43.128906 13.472656 -46.21875 17.421875 -48.375 C 21.367188 -50.53125 25.828125 -51.609375 30.796875 -51.609375 C 38.535156 -51.609375 44.285156 -49.472656 48.046875 -45.203125 C 51.804688 -40.929688 53.6875 -34.921875 53.6875 -27.171875 C 53.6875 -25.203125 53.578125 -23.15625 53.359375 -21.03125 L 17.203125 -21.03125 C 18.003906 -16.582031 19.59375 -13.367188 21.96875 -11.390625 C 24.34375 -9.421875 27.648438 -8.4375 31.890625 -8.4375 C 35.390625 -8.4375 38.269531 -8.726562 40.53125 -9.3125 C 42.800781 -9.894531 44.890625 -10.695312 46.796875 -11.71875 L 50.40625 -3.28125 C 48.582031 -2.113281 46.097656 -1.09375 42.953125 -0.21875 C 39.816406 0.65625 36.019531 1.09375 31.5625 1.09375 Z M 42.1875 -29.25 C 42.257812 -33.78125 41.269531 -36.976562 39.21875 -38.84375 C 37.175781 -40.707031 34.257812 -41.640625 30.46875 -41.640625 C 22.789062 -41.640625 18.367188 -37.507812 17.203125 -29.25 Z M 42.1875 -29.25 "/></g></g></g><g fill="#000000" fill-opacity="1"><g transform="translate(2572.402084, 148.229231)"><g/></g></g><g fill="#000000" fill-opacity="1"><g transform="translate(2599.249186, 148.229231)"><g><path d="M 8.4375 -80.546875 L 43.71875 -80.546875 L 43.71875 -69.796875 L 20.59375 -69.796875 L 20.59375 -47.5625 L 39.234375 -47.5625 L 39.234375 -36.59375 L 20.59375 -36.59375 L 20.59375 -10.84375 L 47.34375 -10.84375 L 47.34375 0 L 8.4375 0 Z M 8.4375 -80.546875 "/></g></g></g><g fill="#000000" fill-opacity="1"><g transform="translate(2650.422966, 148.229231)"><g><path d="M 7.78125 -50.296875 L 19.390625 -50.296875 L 19.5 -41.09375 C 20.894531 -44.15625 23.085938 -46.671875 26.078125 -48.640625 C 29.078125 -50.617188 32.582031 -51.609375 36.59375 -51.609375 C 41.78125 -51.609375 45.757812 -50.53125 48.53125 -48.375 C 51.3125 -46.21875 53.175781 -43.203125 54.125 -39.328125 C 55.082031 -35.460938 55.5625 -30.425781 55.5625 -24.21875 L 55.5625 0 L 43.71875 0 L 43.71875 -23.890625 C 43.71875 -30.242188 43.097656 -34.828125 41.859375 -37.640625 C 40.617188 -40.453125 38.0625 -41.859375 34.1875 -41.859375 C 32 -41.859375 29.769531 -41.179688 27.5 -39.828125 C 25.238281 -38.472656 23.359375 -36.519531 21.859375 -33.96875 C 20.359375 -31.414062 19.609375 -28.421875 19.609375 -24.984375 L 19.609375 0 L 7.78125 0 Z M 7.78125 -50.296875 "/></g></g></g><g fill="#000000" fill-opacity="1"><g transform="translate(2713.431387, 148.229231)"><g><path d="M 32.21875 26.296875 C 28.488281 26.296875 24.816406 25.785156 21.203125 24.765625 C 17.585938 23.742188 15.015625 22.796875 13.484375 21.921875 L 16.109375 10.953125 C 20.929688 14.097656 26.191406 15.671875 31.890625 15.671875 C 36.273438 15.671875 39.960938 14.609375 42.953125 12.484375 C 45.953125 10.367188 47.488281 6.242188 47.5625 0.109375 L 47.5625 -8.875 C 46.019531 -6.03125 43.53125 -3.65625 40.09375 -1.75 C 36.664062 0.144531 32.867188 1.09375 28.703125 1.09375 C 24.328125 1.09375 20.3125 0.015625 16.65625 -2.140625 C 13 -4.296875 10.113281 -7.378906 8 -11.390625 C 5.882812 -15.410156 4.828125 -20.085938 4.828125 -25.421875 C 4.828125 -30.535156 5.828125 -35.082031 7.828125 -39.0625 C 9.835938 -43.039062 12.707031 -46.125 16.4375 -48.3125 C 20.164062 -50.507812 24.507812 -51.609375 29.46875 -51.609375 C 32.394531 -51.609375 35.132812 -51.097656 37.6875 -50.078125 C 40.25 -49.054688 42.425781 -47.796875 44.21875 -46.296875 C 46.007812 -44.796875 47.195312 -43.316406 47.78125 -41.859375 L 48 -50.296875 L 59.171875 -50.296875 L 59.171875 -0.328125 C 59.171875 8.210938 56.976562 14.785156 52.59375 19.390625 C 48.207031 23.992188 41.414062 26.296875 32.21875 26.296875 Z M 32 -8.875 C 36.164062 -8.875 39.671875 -10.316406 42.515625 -13.203125 C 45.367188 -16.085938 46.796875 -19.867188 46.796875 -24.546875 L 46.796875 -25.3125 C 46.796875 -28.457031 46.132812 -31.269531 44.8125 -33.75 C 43.5 -36.226562 41.707031 -38.160156 39.4375 -39.546875 C 37.175781 -40.941406 34.695312 -41.640625 32 -41.640625 C 27.320312 -41.640625 23.703125 -40.125 21.140625 -37.09375 C 18.585938 -34.0625 17.3125 -30.132812 17.3125 -25.3125 C 17.3125 -20.414062 18.570312 -16.453125 21.09375 -13.421875 C 23.613281 -10.390625 27.25 -8.875 32 -8.875 Z M 32 -8.875 "/></g></g></g><g fill="#000000" fill-opacity="1"><g transform="translate(2779.946399, 148.229231)"><g><path d="M 8.65625 -50.296875 L 20.921875 -50.296875 L 20.921875 0 L 8.65625 0 Z M 14.6875 -59.71875 C 12.414062 -59.71875 10.515625 -60.484375 8.984375 -62.015625 C 7.453125 -63.554688 6.6875 -65.457031 6.6875 -67.71875 C 6.6875 -69.757812 7.453125 -71.507812 8.984375 -72.96875 C 10.515625 -74.4375 12.414062 -75.171875 14.6875 -75.171875 C 16.875 -75.171875 18.734375 -74.4375 20.265625 -72.96875 C 21.804688 -71.507812 22.578125 -69.757812 22.578125 -67.71875 C 22.578125 -65.457031 21.828125 -63.554688 20.328125 -62.015625 C 18.828125 -60.484375 16.945312 -59.71875 14.6875 -59.71875 Z M 14.6875 -59.71875 "/></g></g></g><g fill="#000000" fill-opacity="1"><g transform="translate(2809.532964, 148.229231)"><g><path d="M 7.78125 -50.296875 L 19.390625 -50.296875 L 19.5 -41.09375 C 20.894531 -44.15625 23.085938 -46.671875 26.078125 -48.640625 C 29.078125 -50.617188 32.582031 -51.609375 36.59375 -51.609375 C 41.78125 -51.609375 45.757812 -50.53125 48.53125 -48.375 C 51.3125 -46.21875 53.175781 -43.203125 54.125 -39.328125 C 55.082031 -35.460938 55.5625 -30.425781 55.5625 -24.21875 L 55.5625 0 L 43.71875 0 L 43.71875 -23.890625 C 43.71875 -30.242188 43.097656 -34.828125 41.859375 -37.640625 C 40.617188 -40.453125 38.0625 -41.859375 34.1875 -41.859375 C 32 -41.859375 29.769531 -41.179688 27.5 -39.828125 C 25.238281 -38.472656 23.359375 -36.519531 21.859375 -33.96875 C 20.359375 -31.414062 19.609375 -28.421875 19.609375 -24.984375 L 19.609375 0 L 7.78125 0 Z M 7.78125 -50.296875 "/></g></g></g><g fill="#000000" fill-opacity="1"><g transform="translate(2872.541385, 148.229231)"><g><path d="M 31.5625 1.09375 C 25.570312 1.09375 20.566406 -0.09375 16.546875 -2.46875 C 12.523438 -4.84375 9.566406 -8.019531 7.671875 -12 C 5.773438 -15.976562 4.828125 -20.34375 4.828125 -25.09375 C 4.828125 -30.425781 5.9375 -35.097656 8.15625 -39.109375 C 10.382812 -43.128906 13.472656 -46.21875 17.421875 -48.375 C 21.367188 -50.53125 25.828125 -51.609375 30.796875 -51.609375 C 38.535156 -51.609375 44.285156 -49.472656 48.046875 -45.203125 C 51.804688 -40.929688 53.6875 -34.921875 53.6875 -27.171875 C 53.6875 -25.203125 53.578125 -23.15625 53.359375 -21.03125 L 17.203125 -21.03125 C 18.003906 -16.582031 19.59375 -13.367188 21.96875 -11.390625 C 24.34375 -9.421875 27.648438 -8.4375 31.890625 -8.4375 C 35.390625 -8.4375 38.269531 -8.726562 40.53125 -9.3125 C 42.800781 -9.894531 44.890625 -10.695312 46.796875 -11.71875 L 50.40625 -3.28125 C 48.582031 -2.113281 46.097656 -1.09375 42.953125 -0.21875 C 39.816406 0.65625 36.019531 1.09375 31.5625 1.09375 Z M 42.1875 -29.25 C 42.257812 -33.78125 41.269531 -36.976562 39.21875 -38.84375 C 37.175781 -40.707031 34.257812 -41.640625 30.46875 -41.640625 C 22.789062 -41.640625 18.367188 -37.507812 17.203125 -29.25 Z M 42.1875 -29.25 "/></g></g></g><g fill="#000000" fill-opacity="1"><g transform="translate(2930.837867, 148.229231)"><g><path d="M 31.5625 1.09375 C 25.570312 1.09375 20.566406 -0.09375 16.546875 -2.46875 C 12.523438 -4.84375 9.566406 -8.019531 7.671875 -12 C 5.773438 -15.976562 4.828125 -20.34375 4.828125 -25.09375 C 4.828125 -30.425781 5.9375 -35.097656 8.15625 -39.109375 C 10.382812 -43.128906 13.472656 -46.21875 17.421875 -48.375 C 21.367188 -50.53125 25.828125 -51.609375 30.796875 -51.609375 C 38.535156 -51.609375 44.285156 -49.472656 48.046875 -45.203125 C 51.804688 -40.929688 53.6875 -34.921875 53.6875 -27.171875 C 53.6875 -25.203125 53.578125 -23.15625 53.359375 -21.03125 L 17.203125 -21.03125 C 18.003906 -16.582031 19.59375 -13.367188 21.96875 -11.390625 C 24.34375 -9.421875 27.648438 -8.4375 31.890625 -8.4375 C 35.390625 -8.4375 38.269531 -8.726562 40.53125 -9.3125 C 42.800781 -9.894531 44.890625 -10.695312 46.796875 -11.71875 L 50.40625 -3.28125 C 48.582031 -2.113281 46.097656 -1.09375 42.953125 -0.21875 C 39.816406 0.65625 36.019531 1.09375 31.5625 1.09375 Z M 42.1875 -29.25 C 42.257812 -33.78125 41.269531 -36.976562 39.21875 -38.84375 C 37.175781 -40.707031 34.257812 -41.640625 30.46875 -41.640625 C 22.789062 -41.640625 18.367188 -37.507812 17.203125 -29.25 Z M 42.1875 -29.25 "/></g></g></g><g fill="#000000" fill-opacity="1"><g transform="translate(2989.13435, 148.229231)"><g><path d="M 7.453125 -50.296875 L 19.28125 -50.296875 L 19.28125 -40.4375 C 20.445312 -43.789062 22.34375 -46.488281 24.96875 -48.53125 C 27.601562 -50.582031 30.601562 -51.609375 33.96875 -51.609375 C 36.300781 -51.609375 37.910156 -51.390625 38.796875 -50.953125 L 37.140625 -39.015625 C 36.484375 -39.453125 35.0625 -39.671875 32.875 -39.671875 C 29.4375 -39.671875 26.3125 -38.570312 23.5 -36.375 C 20.6875 -34.1875 19.28125 -30.679688 19.28125 -25.859375 L 19.28125 0 L 7.453125 0 Z M 7.453125 -50.296875 "/></g></g></g><g fill="#000000" fill-opacity="1"><g transform="translate(3028.47356, 148.229231)"><g><path d="M 8.65625 -50.296875 L 20.921875 -50.296875 L 20.921875 0 L 8.65625 0 Z M 14.6875 -59.71875 C 12.414062 -59.71875 10.515625 -60.484375 8.984375 -62.015625 C 7.453125 -63.554688 6.6875 -65.457031 6.6875 -67.71875 C 6.6875 -69.757812 7.453125 -71.507812 8.984375 -72.96875 C 10.515625 -74.4375 12.414062 -75.171875 14.6875 -75.171875 C 16.875 -75.171875 18.734375 -74.4375 20.265625 -72.96875 C 21.804688 -71.507812 22.578125 -69.757812 22.578125 -67.71875 C 22.578125 -65.457031 21.828125 -63.554688 20.328125 -62.015625 C 18.828125 -60.484375 16.945312 -59.71875 14.6875 -59.71875 Z M 14.6875 -59.71875 "/></g></g></g><g fill="#000000" fill-opacity="1"><g transform="translate(3058.060126, 148.229231)"><g><path d="M 7.78125 -50.296875 L 19.390625 -50.296875 L 19.5 -41.09375 C 20.894531 -44.15625 23.085938 -46.671875 26.078125 -48.640625 C 29.078125 -50.617188 32.582031 -51.609375 36.59375 -51.609375 C 41.78125 -51.609375 45.757812 -50.53125 48.53125 -48.375 C 51.3125 -46.21875 53.175781 -43.203125 54.125 -39.328125 C 55.082031 -35.460938 55.5625 -30.425781 55.5625 -24.21875 L 55.5625 0 L 43.71875 0 L 43.71875 -23.890625 C 43.71875 -30.242188 43.097656 -34.828125 41.859375 -37.640625 C 40.617188 -40.453125 38.0625 -41.859375 34.1875 -41.859375 C 32 -41.859375 29.769531 -41.179688 27.5 -39.828125 C 25.238281 -38.472656 23.359375 -36.519531 21.859375 -33.96875 C 20.359375 -31.414062 19.609375 -28.421875 19.609375 -24.984375 L 19.609375 0 L 7.78125 0 Z M 7.78125 -50.296875 "/></g></g></g><g fill="#000000" fill-opacity="1"><g transform="translate(3121.068546, 148.229231)"><g><path d="M 32.21875 26.296875 C 28.488281 26.296875 24.816406 25.785156 21.203125 24.765625 C 17.585938 23.742188 15.015625 22.796875 13.484375 21.921875 L 16.109375 10.953125 C 20.929688 14.097656 26.191406 15.671875 31.890625 15.671875 C 36.273438 15.671875 39.960938 14.609375 42.953125 12.484375 C 45.953125 10.367188 47.488281 6.242188 47.5625 0.109375 L 47.5625 -8.875 C 46.019531 -6.03125 43.53125 -3.65625 40.09375 -1.75 C 36.664062 0.144531 32.867188 1.09375 28.703125 1.09375 C 24.328125 1.09375 20.3125 0.015625 16.65625 -2.140625 C 13 -4.296875 10.113281 -7.378906 8 -11.390625 C 5.882812 -15.410156 4.828125 -20.085938 4.828125 -25.421875 C 4.828125 -30.535156 5.828125 -35.082031 7.828125 -39.0625 C 9.835938 -43.039062 12.707031 -46.125 16.4375 -48.3125 C 20.164062 -50.507812 24.507812 -51.609375 29.46875 -51.609375 C 32.394531 -51.609375 35.132812 -51.097656 37.6875 -50.078125 C 40.25 -49.054688 42.425781 -47.796875 44.21875 -46.296875 C 46.007812 -44.796875 47.195312 -43.316406 47.78125 -41.859375 L 48 -50.296875 L 59.171875 -50.296875 L 59.171875 -0.328125 C 59.171875 8.210938 56.976562 14.785156 52.59375 19.390625 C 48.207031 23.992188 41.414062 26.296875 32.21875 26.296875 Z M 32 -8.875 C 36.164062 -8.875 39.671875 -10.316406 42.515625 -13.203125 C 45.367188 -16.085938 46.796875 -19.867188 46.796875 -24.546875 L 46.796875 -25.3125 C 46.796875 -28.457031 46.132812 -31.269531 44.8125 -33.75 C 43.5 -36.226562 41.707031 -38.160156 39.4375 -39.546875 C 37.175781 -40.941406 34.695312 -41.640625 32 -41.640625 C 27.320312 -41.640625 23.703125 -40.125 21.140625 -37.09375 C 18.585938 -34.0625 17.3125 -30.132812 17.3125 -25.3125 C 17.3125 -20.414062 18.570312 -16.453125 21.09375 -13.421875 C 23.613281 -10.390625 27.25 -8.875 32 -8.875 Z M 32 -8.875 "/></g></g></g><g fill="#000000" fill-opacity="1"><g transform="translate(1867.365157, 298.902008)"><g><path d="M 46.125 1.09375 C 38.164062 1.09375 31.046875 -0.726562 24.765625 -4.375 C 18.484375 -8.03125 13.570312 -13.050781 10.03125 -19.4375 C 6.488281 -25.832031 4.71875 -33.015625 4.71875 -40.984375 C 4.71875 -48.722656 6.503906 -55.695312 10.078125 -61.90625 C 13.660156 -68.113281 18.628906 -72.972656 24.984375 -76.484375 C 31.335938 -79.992188 38.5 -81.75 46.46875 -81.75 C 50.769531 -81.75 54.65625 -81.363281 58.125 -80.59375 C 61.601562 -79.820312 64.4375 -78.941406 66.625 -77.953125 C 68.8125 -76.972656 70.304688 -76.117188 71.109375 -75.390625 L 66.296875 -65.09375 C 61.765625 -68.738281 55.078125 -70.5625 46.234375 -70.5625 C 40.390625 -70.5625 35.3125 -69.28125 31 -66.71875 C 26.695312 -64.164062 23.410156 -60.695312 21.140625 -56.3125 C 18.878906 -51.9375 17.75 -47.046875 17.75 -41.640625 C 17.75 -35.503906 18.972656 -30.023438 21.421875 -25.203125 C 23.867188 -20.378906 27.265625 -16.632812 31.609375 -13.96875 C 35.960938 -11.300781 40.875 -9.96875 46.34375 -9.96875 C 49.78125 -9.96875 53.066406 -10.382812 56.203125 -11.21875 C 59.347656 -12.0625 62.019531 -13.398438 64.21875 -15.234375 L 64.21875 -30.796875 L 47.671875 -30.796875 L 47.671875 -42.078125 L 76.375 -42.078125 L 76.375 -10.515625 C 73.75 -7.234375 69.785156 -4.476562 64.484375 -2.25 C 59.191406 -0.0195312 53.070312 1.09375 46.125 1.09375 Z M 46.125 1.09375 "/></g></g></g><g fill="#000000" fill-opacity="1"><g transform="translate(1948.892562, 298.902008)"><g><path d="M 31.5625 1.09375 C 25.570312 1.09375 20.566406 -0.09375 16.546875 -2.46875 C 12.523438 -4.84375 9.566406 -8.019531 7.671875 -12 C 5.773438 -15.976562 4.828125 -20.34375 4.828125 -25.09375 C 4.828125 -30.425781 5.9375 -35.097656 8.15625 -39.109375 C 10.382812 -43.128906 13.472656 -46.21875 17.421875 -48.375 C 21.367188 -50.53125 25.828125 -51.609375 30.796875 -51.609375 C 38.535156 -51.609375 44.285156 -49.472656 48.046875 -45.203125 C 51.804688 -40.929688 53.6875 -34.921875 53.6875 -27.171875 C 53.6875 -25.203125 53.578125 -23.15625 53.359375 -21.03125 L 17.203125 -21.03125 C 18.003906 -16.582031 19.59375 -13.367188 21.96875 -11.390625 C 24.34375 -9.421875 27.648438 -8.4375 31.890625 -8.4375 C 35.390625 -8.4375 38.269531 -8.726562 40.53125 -9.3125 C 42.800781 -9.894531 44.890625 -10.695312 46.796875 -11.71875 L 50.40625 -3.28125 C 48.582031 -2.113281 46.097656 -1.09375 42.953125 -0.21875 C 39.816406 0.65625 36.019531 1.09375 31.5625 1.09375 Z M 42.1875 -29.25 C 42.257812 -33.78125 41.269531 -36.976562 39.21875 -38.84375 C 37.175781 -40.707031 34.257812 -41.640625 30.46875 -41.640625 C 22.789062 -41.640625 18.367188 -37.507812 17.203125 -29.25 Z M 42.1875 -29.25 "/></g></g></g><g fill="#000000" fill-opacity="1"><g transform="translate(2007.189045, 298.902008)"><g><path d="M 31.234375 1.09375 C 26.046875 1.09375 21.441406 -0.0703125 17.421875 -2.40625 C 13.398438 -4.75 10.296875 -7.925781 8.109375 -11.9375 C 5.921875 -15.957031 4.828125 -20.414062 4.828125 -25.3125 C 4.828125 -30.132812 5.898438 -34.550781 8.046875 -38.5625 C 10.203125 -42.582031 13.289062 -45.757812 17.3125 -48.09375 C 21.332031 -50.4375 25.972656 -51.609375 31.234375 -51.609375 C 36.492188 -51.609375 41.113281 -50.4375 45.09375 -48.09375 C 49.070312 -45.757812 52.140625 -42.582031 54.296875 -38.5625 C 56.453125 -34.550781 57.53125 -30.132812 57.53125 -25.3125 C 57.53125 -20.414062 56.429688 -15.957031 54.234375 -11.9375 C 52.046875 -7.925781 48.960938 -4.75 44.984375 -2.40625 C 41.003906 -0.0703125 36.421875 1.09375 31.234375 1.09375 Z M 31.5625 -8.546875 C 35.789062 -8.546875 39.128906 -10.113281 41.578125 -13.25 C 44.023438 -16.394531 45.25 -20.34375 45.25 -25.09375 C 45.25 -29.84375 43.929688 -33.84375 41.296875 -37.09375 C 38.671875 -40.34375 35.207031 -41.96875 30.90625 -41.96875 C 26.738281 -41.96875 23.394531 -40.359375 20.875 -37.140625 C 18.351562 -33.929688 17.09375 -29.914062 17.09375 -25.09375 C 17.09375 -20.414062 18.441406 -16.488281 21.140625 -13.3125 C 23.847656 -10.132812 27.320312 -8.546875 31.5625 -8.546875 Z M 31.5625 -8.546875 "/></g></g></g><g fill="#000000" fill-opacity="1"><g transform="translate(2069.539997, 298.902008)"><g><path d="M 7.453125 -50.296875 L 19.28125 -50.296875 L 19.28125 -40.4375 C 20.445312 -43.789062 22.34375 -46.488281 24.96875 -48.53125 C 27.601562 -50.582031 30.601562 -51.609375 33.96875 -51.609375 C 36.300781 -51.609375 37.910156 -51.390625 38.796875 -50.953125 L 37.140625 -39.015625 C 36.484375 -39.453125 35.0625 -39.671875 32.875 -39.671875 C 29.4375 -39.671875 26.3125 -38.570312 23.5 -36.375 C 20.6875 -34.1875 19.28125 -30.679688 19.28125 -25.859375 L 19.28125 0 L 7.453125 0 Z M 7.453125 -50.296875 "/></g></g></g><g fill="#000000" fill-opacity="1"><g transform="translate(2108.879207, 298.902008)"><g><path d="M 32.21875 26.296875 C 28.488281 26.296875 24.816406 25.785156 21.203125 24.765625 C 17.585938 23.742188 15.015625 22.796875 13.484375 21.921875 L 16.109375 10.953125 C 20.929688 14.097656 26.191406 15.671875 31.890625 15.671875 C 36.273438 15.671875 39.960938 14.609375 42.953125 12.484375 C 45.953125 10.367188 47.488281 6.242188 47.5625 0.109375 L 47.5625 -8.875 C 46.019531 -6.03125 43.53125 -3.65625 40.09375 -1.75 C 36.664062 0.144531 32.867188 1.09375 28.703125 1.09375 C 24.328125 1.09375 20.3125 0.015625 16.65625 -2.140625 C 13 -4.296875 10.113281 -7.378906 8 -11.390625 C 5.882812 -15.410156 4.828125 -20.085938 4.828125 -25.421875 C 4.828125 -30.535156 5.828125 -35.082031 7.828125 -39.0625 C 9.835938 -43.039062 12.707031 -46.125 16.4375 -48.3125 C 20.164062 -50.507812 24.507812 -51.609375 29.46875 -51.609375 C 32.394531 -51.609375 35.132812 -51.097656 37.6875 -50.078125 C 40.25 -49.054688 42.425781 -47.796875 44.21875 -46.296875 C 46.007812 -44.796875 47.195312 -43.316406 47.78125 -41.859375 L 48 -50.296875 L 59.171875 -50.296875 L 59.171875 -0.328125 C 59.171875 8.210938 56.976562 14.785156 52.59375 19.390625 C 48.207031 23.992188 41.414062 26.296875 32.21875 26.296875 Z M 32 -8.875 C 36.164062 -8.875 39.671875 -10.316406 42.515625 -13.203125 C 45.367188 -16.085938 46.796875 -19.867188 46.796875 -24.546875 L 46.796875 -25.3125 C 46.796875 -28.457031 46.132812 -31.269531 44.8125 -33.75 C 43.5 -36.226562 41.707031 -38.160156 39.4375 -39.546875 C 37.175781 -40.941406 34.695312 -41.640625 32 -41.640625 C 27.320312 -41.640625 23.703125 -40.125 21.140625 -37.09375 C 18.585938 -34.0625 17.3125 -30.132812 17.3125 -25.3125 C 17.3125 -20.414062 18.570312 -16.453125 21.09375 -13.421875 C 23.613281 -10.390625 27.25 -8.875 32 -8.875 Z M 32 -8.875 "/></g></g></g><g fill="#000000" fill-opacity="1"><g transform="translate(2175.394219, 298.902008)"><g><path d="M 8.65625 -50.296875 L 20.921875 -50.296875 L 20.921875 0 L 8.65625 0 Z M 14.6875 -59.71875 C 12.414062 -59.71875 10.515625 -60.484375 8.984375 -62.015625 C 7.453125 -63.554688 6.6875 -65.457031 6.6875 -67.71875 C 6.6875 -69.757812 7.453125 -71.507812 8.984375 -72.96875 C 10.515625 -74.4375 12.414062 -75.171875 14.6875 -75.171875 C 16.875 -75.171875 18.734375 -74.4375 20.265625 -72.96875 C 21.804688 -71.507812 22.578125 -69.757812 22.578125 -67.71875 C 22.578125 -65.457031 21.828125 -63.554688 20.328125 -62.015625 C 18.828125 -60.484375 16.945312 -59.71875 14.6875 -59.71875 Z M 14.6875 -59.71875 "/></g></g></g><g fill="#000000" fill-opacity="1"><g transform="translate(2204.980784, 298.902008)"><g><path d="M 30.03125 1.09375 C 25.5 1.09375 21.3125 0.015625 17.46875 -2.140625 C 13.632812 -4.296875 10.566406 -7.363281 8.265625 -11.34375 C 5.972656 -15.320312 4.828125 -19.976562 4.828125 -25.3125 C 4.828125 -30.570312 5.828125 -35.171875 7.828125 -39.109375 C 9.835938 -43.054688 12.707031 -46.125 16.4375 -48.3125 C 20.164062 -50.507812 24.550781 -51.609375 29.59375 -51.609375 C 32.507812 -51.609375 35.242188 -51.097656 37.796875 -50.078125 C 40.359375 -49.054688 42.515625 -47.796875 44.265625 -46.296875 C 46.023438 -44.796875 47.195312 -43.316406 47.78125 -41.859375 L 48 -50.296875 L 59.28125 -50.296875 L 59.28125 0 L 48.109375 0 L 47.890625 -8.875 C 46.640625 -6.25 44.367188 -3.929688 41.078125 -1.921875 C 37.796875 0.0859375 34.113281 1.09375 30.03125 1.09375 Z M 32 -8.765625 C 36.164062 -8.765625 39.671875 -10.207031 42.515625 -13.09375 C 45.367188 -15.976562 46.796875 -19.757812 46.796875 -24.4375 L 46.796875 -25.203125 C 46.796875 -28.347656 46.132812 -31.160156 44.8125 -33.640625 C 43.5 -36.117188 41.707031 -38.050781 39.4375 -39.4375 C 37.175781 -40.832031 34.695312 -41.53125 32 -41.53125 C 27.320312 -41.53125 23.703125 -40.015625 21.140625 -36.984375 C 18.585938 -33.953125 17.3125 -30.023438 17.3125 -25.203125 C 17.3125 -20.304688 18.570312 -16.34375 21.09375 -13.3125 C 23.613281 -10.28125 27.25 -8.765625 32 -8.765625 Z M 32 -8.765625 "/></g></g></g><g fill="#000000" fill-opacity="1"><g transform="translate(2272.372444, 298.902008)"><g/></g></g><g fill="#000000" fill-opacity="1"><g transform="translate(2299.219545, 298.902008)"><g><path d="M 9.96875 -80.546875 L 22.25 -80.546875 L 22.25 0 L 9.96875 0 Z M 9.96875 -80.546875 "/></g></g></g><g fill="#000000" fill-opacity="1"><g transform="translate(2331.436054, 298.902008)"><g><path d="M 7.78125 -50.296875 L 19.390625 -50.296875 L 19.5 -41.09375 C 20.894531 -44.15625 23.085938 -46.671875 26.078125 -48.640625 C 29.078125 -50.617188 32.582031 -51.609375 36.59375 -51.609375 C 41.78125 -51.609375 45.757812 -50.53125 48.53125 -48.375 C 51.3125 -46.21875 53.175781 -43.203125 54.125 -39.328125 C 55.082031 -35.460938 55.5625 -30.425781 55.5625 -24.21875 L 55.5625 0 L 43.71875 0 L 43.71875 -23.890625 C 43.71875 -30.242188 43.097656 -34.828125 41.859375 -37.640625 C 40.617188 -40.453125 38.0625 -41.859375 34.1875 -41.859375 C 32 -41.859375 29.769531 -41.179688 27.5 -39.828125 C 25.238281 -38.472656 23.359375 -36.519531 21.859375 -33.96875 C 20.359375 -31.414062 19.609375 -28.421875 19.609375 -24.984375 L 19.609375 0 L 7.78125 0 Z M 7.78125 -50.296875 "/></g></g></g><g fill="#000000" fill-opacity="1"><g transform="translate(2394.444475, 298.902008)"><g><path d="M 25.09375 1.09375 C 21.582031 1.09375 17.945312 0.640625 14.1875 -0.265625 C 10.425781 -1.179688 7.742188 -2.257812 6.140625 -3.5 L 10.078125 -12.828125 C 14.460938 -9.753906 19.46875 -8.21875 25.09375 -8.21875 C 30.71875 -8.21875 33.53125 -9.863281 33.53125 -13.15625 C 33.53125 -14.613281 32.945312 -15.742188 31.78125 -16.546875 C 30.613281 -17.347656 28.53125 -18.296875 25.53125 -19.390625 L 21.375 -20.921875 C 16.988281 -22.679688 13.515625 -24.785156 10.953125 -27.234375 C 8.398438 -29.679688 7.125 -32.910156 7.125 -36.921875 C 7.125 -41.523438 8.929688 -45.125 12.546875 -47.71875 C 16.160156 -50.3125 21 -51.609375 27.0625 -51.609375 C 30.0625 -51.609375 33.003906 -51.28125 35.890625 -50.625 C 38.773438 -49.96875 40.984375 -49.128906 42.515625 -48.109375 L 38.25 -38.6875 C 37.289062 -39.632812 35.769531 -40.453125 33.6875 -41.140625 C 31.613281 -41.835938 29.296875 -42.1875 26.734375 -42.1875 C 21.546875 -42.1875 18.953125 -40.613281 18.953125 -37.46875 C 18.953125 -35.71875 19.644531 -34.382812 21.03125 -33.46875 C 22.425781 -32.5625 24.691406 -31.5625 27.828125 -30.46875 C 28.117188 -30.394531 29.253906 -29.988281 31.234375 -29.25 C 35.910156 -27.425781 39.378906 -25.34375 41.640625 -23 C 43.898438 -20.664062 45.03125 -17.675781 45.03125 -14.03125 C 45.03125 -9.0625 43.148438 -5.296875 39.390625 -2.734375 C 35.628906 -0.179688 30.863281 1.09375 25.09375 1.09375 Z M 25.09375 1.09375 "/></g></g></g><g fill="#000000" fill-opacity="1"><g transform="translate(2443.974549, 298.902008)"><g><path d="M 12.15625 -40.65625 L 3.28125 -40.65625 L 3.28125 -50.296875 L 12.15625 -50.296875 L 12.15625 -70.78125 L 24.109375 -73.421875 L 24.109375 -50.296875 L 35.71875 -50.296875 L 35.71875 -40.65625 L 24.109375 -40.65625 L 24.109375 0 L 12.15625 0 Z M 12.15625 -40.65625 "/></g></g></g><g fill="#000000" fill-opacity="1"><g transform="translate(2481.560464, 298.902008)"><g><path d="M 8.65625 -50.296875 L 20.921875 -50.296875 L 20.921875 0 L 8.65625 0 Z M 14.6875 -59.71875 C 12.414062 -59.71875 10.515625 -60.484375 8.984375 -62.015625 C 7.453125 -63.554688 6.6875 -65.457031 6.6875 -67.71875 C 6.6875 -69.757812 7.453125 -71.507812 8.984375 -72.96875 C 10.515625 -74.4375 12.414062 -75.171875 14.6875 -75.171875 C 16.875 -75.171875 18.734375 -74.4375 20.265625 -72.96875 C 21.804688 -71.507812 22.578125 -69.757812 22.578125 -67.71875 C 22.578125 -65.457031 21.828125 -63.554688 20.328125 -62.015625 C 18.828125 -60.484375 16.945312 -59.71875 14.6875 -59.71875 Z M 14.6875 -59.71875 "/></g></g></g><g fill="#000000" fill-opacity="1"><g transform="translate(2511.14703, 298.902008)"><g><path d="M 12.15625 -40.65625 L 3.28125 -40.65625 L 3.28125 -50.296875 L 12.15625 -50.296875 L 12.15625 -70.78125 L 24.109375 -73.421875 L 24.109375 -50.296875 L 35.71875 -50.296875 L 35.71875 -40.65625 L 24.109375 -40.65625 L 24.109375 0 L 12.15625 0 Z M 12.15625 -40.65625 "/></g></g></g><g fill="#000000" fill-opacity="1"><g transform="translate(2548.732945, 298.902008)"><g><path d="M 25.203125 1.09375 C 18.265625 1.09375 13.5 -0.945312 10.90625 -5.03125 C 8.3125 -9.125 7.015625 -14.828125 7.015625 -22.140625 L 7.015625 -50.296875 L 18.84375 -50.296875 L 18.84375 -25.09375 C 18.84375 -20.925781 19.078125 -17.691406 19.546875 -15.390625 C 20.023438 -13.085938 20.976562 -11.390625 22.40625 -10.296875 C 23.832031 -9.203125 25.96875 -8.65625 28.8125 -8.65625 C 30.863281 -8.65625 32.835938 -9.238281 34.734375 -10.40625 C 36.628906 -11.570312 38.179688 -13.160156 39.390625 -15.171875 C 40.597656 -17.179688 41.203125 -19.394531 41.203125 -21.8125 L 41.203125 -50.296875 L 52.921875 -50.296875 L 52.921875 0 L 43.28125 0 L 41.96875 -7.34375 C 40.144531 -4.488281 37.863281 -2.367188 35.125 -0.984375 C 32.382812 0.398438 29.078125 1.09375 25.203125 1.09375 Z M 25.203125 1.09375 "/></g></g></g><g fill="#000000" fill-opacity="1"><g transform="translate(2609.65937, 298.902008)"><g><path d="M 12.15625 -40.65625 L 3.28125 -40.65625 L 3.28125 -50.296875 L 12.15625 -50.296875 L 12.15625 -70.78125 L 24.109375 -73.421875 L 24.109375 -50.296875 L 35.71875 -50.296875 L 35.71875 -40.65625 L 24.109375 -40.65625 L 24.109375 0 L 12.15625 0 Z M 12.15625 -40.65625 "/></g></g></g><g fill="#000000" fill-opacity="1"><g transform="translate(2647.245285, 298.902008)"><g><path d="M 31.5625 1.09375 C 25.570312 1.09375 20.566406 -0.09375 16.546875 -2.46875 C 12.523438 -4.84375 9.566406 -8.019531 7.671875 -12 C 5.773438 -15.976562 4.828125 -20.34375 4.828125 -25.09375 C 4.828125 -30.425781 5.9375 -35.097656 8.15625 -39.109375 C 10.382812 -43.128906 13.472656 -46.21875 17.421875 -48.375 C 21.367188 -50.53125 25.828125 -51.609375 30.796875 -51.609375 C 38.535156 -51.609375 44.285156 -49.472656 48.046875 -45.203125 C 51.804688 -40.929688 53.6875 -34.921875 53.6875 -27.171875 C 53.6875 -25.203125 53.578125 -23.15625 53.359375 -21.03125 L 17.203125 -21.03125 C 18.003906 -16.582031 19.59375 -13.367188 21.96875 -11.390625 C 24.34375 -9.421875 27.648438 -8.4375 31.890625 -8.4375 C 35.390625 -8.4375 38.269531 -8.726562 40.53125 -9.3125 C 42.800781 -9.894531 44.890625 -10.695312 46.796875 -11.71875 L 50.40625 -3.28125 C 48.582031 -2.113281 46.097656 -1.09375 42.953125 -0.21875 C 39.816406 0.65625 36.019531 1.09375 31.5625 1.09375 Z M 42.1875 -29.25 C 42.257812 -33.78125 41.269531 -36.976562 39.21875 -38.84375 C 37.175781 -40.707031 34.257812 -41.640625 30.46875 -41.640625 C 22.789062 -41.640625 18.367188 -37.507812 17.203125 -29.25 Z M 42.1875 -29.25 "/></g></g></g><g fill="#000000" fill-opacity="1"><g transform="translate(2705.541768, 298.902008)"><g/></g></g><g fill="#000000" fill-opacity="1"><g transform="translate(2732.38887, 298.902008)"><g><path d="M 31.234375 1.09375 C 26.046875 1.09375 21.441406 -0.0703125 17.421875 -2.40625 C 13.398438 -4.75 10.296875 -7.925781 8.109375 -11.9375 C 5.921875 -15.957031 4.828125 -20.414062 4.828125 -25.3125 C 4.828125 -30.132812 5.898438 -34.550781 8.046875 -38.5625 C 10.203125 -42.582031 13.289062 -45.757812 17.3125 -48.09375 C 21.332031 -50.4375 25.972656 -51.609375 31.234375 -51.609375 C 36.492188 -51.609375 41.113281 -50.4375 45.09375 -48.09375 C 49.070312 -45.757812 52.140625 -42.582031 54.296875 -38.5625 C 56.453125 -34.550781 57.53125 -30.132812 57.53125 -25.3125 C 57.53125 -20.414062 56.429688 -15.957031 54.234375 -11.9375 C 52.046875 -7.925781 48.960938 -4.75 44.984375 -2.40625 C 41.003906 -0.0703125 36.421875 1.09375 31.234375 1.09375 Z M 31.5625 -8.546875 C 35.789062 -8.546875 39.128906 -10.113281 41.578125 -13.25 C 44.023438 -16.394531 45.25 -20.34375 45.25 -25.09375 C 45.25 -29.84375 43.929688 -33.84375 41.296875 -37.09375 C 38.671875 -40.34375 35.207031 -41.96875 30.90625 -41.96875 C 26.738281 -41.96875 23.394531 -40.359375 20.875 -37.140625 C 18.351562 -33.929688 17.09375 -29.914062 17.09375 -25.09375 C 17.09375 -20.414062 18.441406 -16.488281 21.140625 -13.3125 C 23.847656 -10.132812 27.320312 -8.546875 31.5625 -8.546875 Z M 31.5625 -8.546875 "/></g></g></g><g fill="#000000" fill-opacity="1"><g transform="translate(2794.739822, 298.902008)"><g><path d="M 12.484375 -40.875 L 4.390625 -40.875 L 4.390625 -50.296875 L 12.484375 -50.296875 L 12.484375 -61.140625 C 12.484375 -67.710938 14.070312 -72.804688 17.25 -76.421875 C 20.4375 -80.046875 25.097656 -81.859375 31.234375 -81.859375 C 33.710938 -81.859375 36.523438 -81.160156 39.671875 -79.765625 L 37.359375 -68.59375 C 36.847656 -69.175781 36.0625 -69.738281 35 -70.28125 C 33.945312 -70.832031 32.800781 -71.109375 31.5625 -71.109375 C 26.664062 -71.109375 24.179688 -67.929688 24.109375 -61.578125 L 24.109375 -50.296875 L 35.9375 -50.296875 L 35.9375 -40.875 L 24.109375 -40.875 L 24.109375 0 L 12.484375 0 Z M 12.484375 -40.875 "/></g></g></g><g fill="#000000" fill-opacity="1"><g transform="translate(2834.407732, 298.902008)"><g/></g></g><g fill="#000000" fill-opacity="1"><g transform="translate(2861.254833, 298.902008)"><g><path d="M 23.890625 -69.796875 L 3.28125 -69.796875 L 3.28125 -80.546875 L 56.875 -80.546875 L 56.875 -69.796875 L 36.046875 -69.796875 L 36.046875 0 L 23.890625 0 Z M 23.890625 -69.796875 "/></g></g></g><g fill="#000000" fill-opacity="1"><g transform="translate(2921.414201, 298.902008)"><g><path d="M 31.5625 1.09375 C 25.570312 1.09375 20.566406 -0.09375 16.546875 -2.46875 C 12.523438 -4.84375 9.566406 -8.019531 7.671875 -12 C 5.773438 -15.976562 4.828125 -20.34375 4.828125 -25.09375 C 4.828125 -30.425781 5.9375 -35.097656 8.15625 -39.109375 C 10.382812 -43.128906 13.472656 -46.21875 17.421875 -48.375 C 21.367188 -50.53125 25.828125 -51.609375 30.796875 -51.609375 C 38.535156 -51.609375 44.285156 -49.472656 48.046875 -45.203125 C 51.804688 -40.929688 53.6875 -34.921875 53.6875 -27.171875 C 53.6875 -25.203125 53.578125 -23.15625 53.359375 -21.03125 L 17.203125 -21.03125 C 18.003906 -16.582031 19.59375 -13.367188 21.96875 -11.390625 C 24.34375 -9.421875 27.648438 -8.4375 31.890625 -8.4375 C 35.390625 -8.4375 38.269531 -8.726562 40.53125 -9.3125 C 42.800781 -9.894531 44.890625 -10.695312 46.796875 -11.71875 L 50.40625 -3.28125 C 48.582031 -2.113281 46.097656 -1.09375 42.953125 -0.21875 C 39.816406 0.65625 36.019531 1.09375 31.5625 1.09375 Z M 42.1875 -29.25 C 42.257812 -33.78125 41.269531 -36.976562 39.21875 -38.84375 C 37.175781 -40.707031 34.257812 -41.640625 30.46875 -41.640625 C 22.789062 -41.640625 18.367188 -37.507812 17.203125 -29.25 Z M 42.1875 -29.25 "/></g></g></g><g fill="#000000" fill-opacity="1"><g transform="translate(2979.710684, 298.902008)"><g><path d="M 31.234375 1.09375 C 26.265625 1.09375 21.785156 0.015625 17.796875 -2.140625 C 13.816406 -4.296875 10.660156 -7.398438 8.328125 -11.453125 C 5.992188 -15.503906 4.828125 -20.269531 4.828125 -25.75 C 4.828125 -30.9375 5.898438 -35.484375 8.046875 -39.390625 C 10.203125 -43.296875 13.234375 -46.304688 17.140625 -48.421875 C 21.054688 -50.546875 25.570312 -51.609375 30.6875 -51.609375 C 34.550781 -51.609375 37.890625 -51.113281 40.703125 -50.125 C 43.515625 -49.144531 45.726562 -47.925781 47.34375 -46.46875 L 42.078125 -36.921875 C 39.003906 -39.992188 35.535156 -41.53125 31.671875 -41.53125 C 26.992188 -41.53125 23.429688 -40.101562 20.984375 -37.25 C 18.535156 -34.40625 17.3125 -30.609375 17.3125 -25.859375 C 17.3125 -20.453125 18.570312 -16.25 21.09375 -13.25 C 23.613281 -10.257812 27.140625 -8.765625 31.671875 -8.765625 C 33.929688 -8.765625 36.140625 -9.09375 38.296875 -9.75 C 40.453125 -10.40625 42.113281 -11.171875 43.28125 -12.046875 L 47.5625 -3.71875 C 45.945312 -2.476562 43.695312 -1.363281 40.8125 -0.375 C 37.925781 0.601562 34.734375 1.09375 31.234375 1.09375 Z M 31.234375 1.09375 "/></g></g></g><g fill="#000000" fill-opacity="1"><g transform="translate(3030.774875, 298.902008)"><g><path d="M 8.328125 -80.546875 L 19.828125 -80.546875 L 19.828125 -50.296875 L 19.390625 -40.984375 C 20.785156 -44.046875 23.015625 -46.582031 26.078125 -48.59375 C 29.148438 -50.601562 32.726562 -51.609375 36.8125 -51.609375 C 42 -51.609375 45.976562 -50.53125 48.75 -48.375 C 51.53125 -46.21875 53.394531 -43.203125 54.34375 -39.328125 C 55.300781 -35.460938 55.78125 -30.425781 55.78125 -24.21875 L 55.78125 0 L 44.046875 0 L 44.046875 -24.328125 C 44.046875 -28.566406 43.804688 -31.890625 43.328125 -34.296875 C 42.859375 -36.703125 41.910156 -38.523438 40.484375 -39.765625 C 39.066406 -41.015625 37.003906 -41.640625 34.296875 -41.640625 C 32.109375 -41.640625 29.898438 -40.976562 27.671875 -39.65625 C 25.441406 -38.34375 23.59375 -36.425781 22.125 -33.90625 C 20.664062 -31.394531 19.9375 -28.421875 19.9375 -24.984375 L 19.9375 0 L 8.328125 0 Z M 8.328125 -80.546875 "/></g></g></g><g fill="#000000" fill-opacity="1"><g transform="translate(3093.783296, 298.902008)"><g><path d="M 7.78125 -50.296875 L 19.390625 -50.296875 L 19.5 -41.09375 C 20.894531 -44.15625 23.085938 -46.671875 26.078125 -48.640625 C 29.078125 -50.617188 32.582031 -51.609375 36.59375 -51.609375 C 41.78125 -51.609375 45.757812 -50.53125 48.53125 -48.375 C 51.3125 -46.21875 53.175781 -43.203125 54.125 -39.328125 C 55.082031 -35.460938 55.5625 -30.425781 55.5625 -24.21875 L 55.5625 0 L 43.71875 0 L 43.71875 -23.890625 C 43.71875 -30.242188 43.097656 -34.828125 41.859375 -37.640625 C 40.617188 -40.453125 38.0625 -41.859375 34.1875 -41.859375 C 32 -41.859375 29.769531 -41.179688 27.5 -39.828125 C 25.238281 -38.472656 23.359375 -36.519531 21.859375 -33.96875 C 20.359375 -31.414062 19.609375 -28.421875 19.609375 -24.984375 L 19.609375 0 L 7.78125 0 Z M 7.78125 -50.296875 "/></g></g></g><g fill="#000000" fill-opacity="1"><g transform="translate(3156.791717, 298.902008)"><g><path d="M 31.234375 1.09375 C 26.046875 1.09375 21.441406 -0.0703125 17.421875 -2.40625 C 13.398438 -4.75 10.296875 -7.925781 8.109375 -11.9375 C 5.921875 -15.957031 4.828125 -20.414062 4.828125 -25.3125 C 4.828125 -30.132812 5.898438 -34.550781 8.046875 -38.5625 C 10.203125 -42.582031 13.289062 -45.757812 17.3125 -48.09375 C 21.332031 -50.4375 25.972656 -51.609375 31.234375 -51.609375 C 36.492188 -51.609375 41.113281 -50.4375 45.09375 -48.09375 C 49.070312 -45.757812 52.140625 -42.582031 54.296875 -38.5625 C 56.453125 -34.550781 57.53125 -30.132812 57.53125 -25.3125 C 57.53125 -20.414062 56.429688 -15.957031 54.234375 -11.9375 C 52.046875 -7.925781 48.960938 -4.75 44.984375 -2.40625 C 41.003906 -0.0703125 36.421875 1.09375 31.234375 1.09375 Z M 31.5625 -8.546875 C 35.789062 -8.546875 39.128906 -10.113281 41.578125 -13.25 C 44.023438 -16.394531 45.25 -20.34375 45.25 -25.09375 C 45.25 -29.84375 43.929688 -33.84375 41.296875 -37.09375 C 38.671875 -40.34375 35.207031 -41.96875 30.90625 -41.96875 C 26.738281 -41.96875 23.394531 -40.359375 20.875 -37.140625 C 18.351562 -33.929688 17.09375 -29.914062 17.09375 -25.09375 C 17.09375 -20.414062 18.441406 -16.488281 21.140625 -13.3125 C 23.847656 -10.132812 27.320312 -8.546875 31.5625 -8.546875 Z M 31.5625 -8.546875 "/></g></g></g><g fill="#000000" fill-opacity="1"><g transform="translate(3219.142739, 298.902008)"><g><path d="M 8.765625 -80.546875 L 20.484375 -80.546875 L 20.484375 0 L 8.765625 0 Z M 8.765625 -80.546875 "/></g></g></g><g fill="#000000" fill-opacity="1"><g transform="translate(3248.510124, 298.902008)"><g><path d="M 31.234375 1.09375 C 26.046875 1.09375 21.441406 -0.0703125 17.421875 -2.40625 C 13.398438 -4.75 10.296875 -7.925781 8.109375 -11.9375 C 5.921875 -15.957031 4.828125 -20.414062 4.828125 -25.3125 C 4.828125 -30.132812 5.898438 -34.550781 8.046875 -38.5625 C 10.203125 -42.582031 13.289062 -45.757812 17.3125 -48.09375 C 21.332031 -50.4375 25.972656 -51.609375 31.234375 -51.609375 C 36.492188 -51.609375 41.113281 -50.4375 45.09375 -48.09375 C 49.070312 -45.757812 52.140625 -42.582031 54.296875 -38.5625 C 56.453125 -34.550781 57.53125 -30.132812 57.53125 -25.3125 C 57.53125 -20.414062 56.429688 -15.957031 54.234375 -11.9375 C 52.046875 -7.925781 48.960938 -4.75 44.984375 -2.40625 C 41.003906 -0.0703125 36.421875 1.09375 31.234375 1.09375 Z M 31.5625 -8.546875 C 35.789062 -8.546875 39.128906 -10.113281 41.578125 -13.25 C 44.023438 -16.394531 45.25 -20.34375 45.25 -25.09375 C 45.25 -29.84375 43.929688 -33.84375 41.296875 -37.09375 C 38.671875 -40.34375 35.207031 -41.96875 30.90625 -41.96875 C 26.738281 -41.96875 23.394531 -40.359375 20.875 -37.140625 C 18.351562 -33.929688 17.09375 -29.914062 17.09375 -25.09375 C 17.09375 -20.414062 18.441406 -16.488281 21.140625 -13.3125 C 23.847656 -10.132812 27.320312 -8.546875 31.5625 -8.546875 Z M 31.5625 -8.546875 "/></g></g></g><g fill="#000000" fill-opacity="1"><g transform="translate(3310.861146, 298.902008)"><g><path d="M 32.21875 26.296875 C 28.488281 26.296875 24.816406 25.785156 21.203125 24.765625 C 17.585938 23.742188 15.015625 22.796875 13.484375 21.921875 L 16.109375 10.953125 C 20.929688 14.097656 26.191406 15.671875 31.890625 15.671875 C 36.273438 15.671875 39.960938 14.609375 42.953125 12.484375 C 45.953125 10.367188 47.488281 6.242188 47.5625 0.109375 L 47.5625 -8.875 C 46.019531 -6.03125 43.53125 -3.65625 40.09375 -1.75 C 36.664062 0.144531 32.867188 1.09375 28.703125 1.09375 C 24.328125 1.09375 20.3125 0.015625 16.65625 -2.140625 C 13 -4.296875 10.113281 -7.378906 8 -11.390625 C 5.882812 -15.410156 4.828125 -20.085938 4.828125 -25.421875 C 4.828125 -30.535156 5.828125 -35.082031 7.828125 -39.0625 C 9.835938 -43.039062 12.707031 -46.125 16.4375 -48.3125 C 20.164062 -50.507812 24.507812 -51.609375 29.46875 -51.609375 C 32.394531 -51.609375 35.132812 -51.097656 37.6875 -50.078125 C 40.25 -49.054688 42.425781 -47.796875 44.21875 -46.296875 C 46.007812 -44.796875 47.195312 -43.316406 47.78125 -41.859375 L 48 -50.296875 L 59.171875 -50.296875 L 59.171875 -0.328125 C 59.171875 8.210938 56.976562 14.785156 52.59375 19.390625 C 48.207031 23.992188 41.414062 26.296875 32.21875 26.296875 Z M 32 -8.875 C 36.164062 -8.875 39.671875 -10.316406 42.515625 -13.203125 C 45.367188 -16.085938 46.796875 -19.867188 46.796875 -24.546875 L 46.796875 -25.3125 C 46.796875 -28.457031 46.132812 -31.269531 44.8125 -33.75 C 43.5 -36.226562 41.707031 -38.160156 39.4375 -39.546875 C 37.175781 -40.941406 34.695312 -41.640625 32 -41.640625 C 27.320312 -41.640625 23.703125 -40.125 21.140625 -37.09375 C 18.585938 -34.0625 17.3125 -30.132812 17.3125 -25.3125 C 17.3125 -20.414062 18.570312 -16.453125 21.09375 -13.421875 C 23.613281 -10.390625 27.25 -8.875 32 -8.875 Z M 32 -8.875 "/></g></g></g><g fill="#000000" fill-opacity="1"><g transform="translate(3377.376157, 298.902008)"><g><path d="M 22.25 1.53125 L 1.421875 -50.296875 L 14.796875 -50.296875 L 25.53125 -18.296875 L 27.9375 -10.515625 L 30.359375 -18.296875 L 41.640625 -50.296875 L 54.5625 -50.296875 L 23.671875 27.609375 L 11.390625 27.609375 Z M 22.25 1.53125 "/></g></g></g></svg>