<?xml version="1.0" standalone="no"?>
<!DOCTYPE svg PUBLIC "-//W3C//DTD SVG 20010904//EN"
 "http://www.w3.org/TR/2001/REC-SVG-20010904/DTD/svg10.dtd">
<svg version="1.0" xmlns="http://www.w3.org/2000/svg"
 width="700.000000pt" height="700.000000pt" viewBox="0 0 700.000000 700.000000"
 preserveAspectRatio="xMidYMid meet">
<metadata>
Created by potrace 1.14, written by Peter Selinger 2001-2017
</metadata>
<g transform="translate(0.000000,700.000000) scale(0.100000,-0.100000)"
fill="#000000" stroke="none">
<path d="M5608 6995 c-1 -1 -48 -5 -104 -9 -55 -4 -109 -8 -120 -10 -10 -2
-46 -7 -79 -10 -33 -4 -67 -9 -75 -11 -8 -2 -31 -6 -50 -9 -19 -3 -46 -8 -60
-11 -14 -2 -50 -10 -80 -16 -327 -65 -732 -215 -987 -365 -224 -133 -408 -262
-558 -394 -52 -46 -311 -304 -356 -355 -39 -44 -185 -230 -209 -265 -8 -12
-22 -30 -30 -40 -8 -9 -49 -69 -90 -133 l-75 -116 -600 -2 c-330 -1 -616 -3
-635 -5 -221 -24 -443 -135 -598 -298 -87 -92 -96 -105 -292 -436 -90 -151
-170 -287 -179 -302 -33 -55 -86 -144 -96 -163 -6 -11 -32 -54 -57 -95 -275
-458 -273 -455 -273 -560 1 -73 5 -93 29 -140 32 -64 56 -92 113 -131 80 -56
83 -56 880 -56 403 0 736 -3 739 -6 3 -3 -18 -69 -46 -148 -127 -353 -144
-429 -120 -531 28 -119 55 -153 330 -429 243 -243 265 -262 337 -297 73 -35
84 -37 173 -36 92 0 103 3 345 84 138 45 256 83 264 84 11 1 14 -117 14 -744
0 -813 0 -812 57 -895 60 -87 140 -133 250 -142 74 -6 149 15 228 65 44 28
247 148 867 515 149 87 300 179 337 203 81 53 185 149 245 226 89 116 168 298
188 430 3 24 8 52 10 63 2 11 4 292 4 625 l1 605 69 43 c274 168 638 481 853
732 215 252 424 584 533 850 14 36 32 79 39 95 88 200 197 623 222 860 3 33 7
62 9 66 9 14 19 244 20 434 0 228 -12 453 -30 560 -2 17 -7 48 -10 70 -3 22
-11 67 -17 100 -5 33 -12 74 -15 90 -14 91 -114 215 -209 260 -55 26 -289 69
-439 81 -38 3 -81 7 -95 10 -27 6 -566 14 -572 9z m-247 -1210 c24 -4 80 -24
124 -45 342 -165 417 -610 148 -877 -213 -211 -555 -210 -767 3 -169 169 -209
413 -101 630 107 217 340 330 596 289z"/>
</g>
</svg>
